<?xml version="1.0" encoding="UTF-8"?>
<svg id="Layer_2" data-name="Layer 2" xmlns="http://www.w3.org/2000/svg" viewBox="0 0 106.79 60.82">
  <defs>
    <style>
      .cls-1 {
        fill: #fff;
      }

      .cls-2 {
        fill: #bd9264;
      }

      .cls-3 {
        fill: #386851;
      }
    </style>
  </defs>
  <g id="Layer_1-2" data-name="Layer 1">
    <g>
      <rect class="cls-2" x="41.29" y="26.16" width="10.5" height="9.69"/>
      <g>
        <path class="cls-3" d="M2.39,48.27c-1.61,0-2.37-.74-2.37-2.37v-3.47c0-1.63.76-2.37,2.37-2.37h3.5c1.61,0,2.37.74,2.37,2.37v1.04h-2.44v-.55c0-.56-.2-.75-.75-.75h-1.76c-.56,0-.75.19-.75.75v2.49c0,.56.19.75.75.75h1.76c.55,0,.75-.19.75-.75v-.63h2.44v1.13c0,1.63-.76,2.37-2.37,2.37h-3.5Z"/>
        <path class="cls-3" d="M11.89,48.27c-1.61,0-2.37-.74-2.37-2.37v-3.47c0-1.63.76-2.37,2.37-2.37h3.83c1.61,0,2.37.74,2.37,2.37v3.47c0,1.63-.76,2.37-2.37,2.37h-3.83ZM14.8,46.12c.55,0,.75-.19.75-.75v-2.42c0-.56-.2-.75-.75-.75h-2c-.56,0-.75.19-.75.75v2.42c0,.56.19.75.75.75h2Z"/>
        <path class="cls-3" d="M25.47,40.06h2.44v8.22h-2.04l-3.97-4.62v4.62h-2.44v-8.22h2.15l3.86,4.5v-4.5Z"/>
        <path class="cls-3" d="M29.29,45.63h2.44v.34c0,.39.13.52.52.52h2.32c.39,0,.52-.13.52-.52v-.29c0-.39-.11-.48-.52-.52l-3.31-.29c-1.31-.13-1.85-.6-1.85-1.85v-1.1c0-1.28.59-1.85,1.85-1.85h4.34c1.27,0,1.85.58,1.85,1.85v.67h-2.44v-.23c0-.39-.13-.52-.52-.52h-2.04c-.39,0-.52.13-.52.52v.15c0,.38.13.48.52.52l3.31.29c1.31.11,1.85.59,1.85,1.85v1.26c0,1.28-.59,1.85-1.85,1.85h-4.62c-1.27,0-1.85-.58-1.85-1.85v-.79Z"/>
        <path class="cls-3" d="M46.28,40.06v2.24h-2.65v5.97h-2.54v-5.97h-2.65v-2.24h7.84Z"/>
        <path class="cls-3" d="M55.67,48.27h-2.75l-1.64-2.64h-1.41v2.64h-2.54v-8.22h5.85c1.5,0,2.14.63,2.14,2.14v1.12c0,1.28-.46,1.91-1.49,2.09l1.84,2.88ZM49.87,41.92v1.9h2.28c.48,0,.63-.15.63-.63v-.63c0-.48-.15-.63-.63-.63h-2.28Z"/>
        <path class="cls-3" d="M59.08,48.27c-1.61,0-2.37-.74-2.37-2.37v-5.85h2.54v5.32c0,.56.19.75.75.75h1.64c.56,0,.75-.19.75-.75v-5.32h2.54v5.85c0,1.63-.76,2.37-2.37,2.37h-3.47Z"/>
        <path class="cls-3" d="M68.63,48.27c-1.61,0-2.37-.74-2.37-2.37v-3.47c0-1.63.76-2.37,2.37-2.37h3.5c1.61,0,2.37.74,2.37,2.37v1.04h-2.44v-.55c0-.56-.2-.75-.75-.75h-1.76c-.56,0-.75.19-.75.75v2.49c0,.56.19.75.75.75h1.76c.55,0,.75-.19.75-.75v-.63h2.44v1.13c0,1.63-.76,2.37-2.37,2.37h-3.5Z"/>
        <path class="cls-3" d="M83.23,40.06v2.24h-2.65v5.97h-2.54v-5.97h-2.65v-2.24h7.84Z"/>
        <path class="cls-3" d="M84.33,40.06h2.58v8.22h-2.58v-8.22Z"/>
        <path class="cls-3" d="M90.72,48.27c-1.61,0-2.37-.74-2.37-2.37v-3.47c0-1.63.76-2.37,2.37-2.37h3.83c1.61,0,2.37.74,2.37,2.37v3.47c0,1.63-.76,2.37-2.37,2.37h-3.83ZM93.63,46.12c.55,0,.75-.19.75-.75v-2.42c0-.56-.2-.75-.75-.75h-2c-.56,0-.75.19-.75.75v2.42c0,.56.19.75.75.75h2Z"/>
        <path class="cls-3" d="M104.3,40.06h2.44v8.22h-2.04l-3.97-4.62v4.62h-2.44v-8.22h2.15l3.86,4.5v-4.5Z"/>
      </g>
      <path class="cls-3" d="M65.55,12.69h28.38c1.35,0,2.44-1.09,2.44-2.44V.03s10.42,0,10.42,0v35.76s-10.42,0-10.42,0v-12.52s-30.82,0-30.82,0v12.52s-10.55,0-10.55,0V15.13c0-1.35,1.09-2.44,2.44-2.44h8.11s0,0,0,0Z"/>
      <path class="cls-2" d="M41.96.02c-2.1,0-4.09.95-5.41,2.59l-10.65,13.23L15.24,2.59C13.92.95,11.93,0,9.83,0H0v35.83h10.5V13.05l8.72,11.01.04.05h0s1.6,2.03,1.6,2.03h9.92l10.51-13.06v10.21h10.5V.02h-9.83Z"/>
      <rect class="cls-3" x="55" y="0" width="10.5" height="9.69"/>
      <rect class="cls-2" x="13.66" y="51.33" width="79.55" height="9.49"/>
      <g>
        <path class="cls-1" d="M23.27,54.43l-.98,3.29h-.82l-.96-3.29h.91l.46,2.09.55-2.09h.84Z"/>
        <path class="cls-1" d="M26.08,54.43h2.15v.71h-1.31v.58h1.13v.7h-1.13v.6h1.31v.71h-2.15v-3.29Z"/>
        <path class="cls-1" d="M33.28,54.43v.71h-.75v2.58h-.85v-2.58h-.75v-.71h2.34Z"/>
        <path class="cls-1" d="M36.11,54.43h2.15v.71h-1.31v.58h1.13v.7h-1.13v.6h1.31v.71h-2.15v-3.29Z"/>
        <path class="cls-1" d="M43.35,54.43c.2,0,.37.16.37.37v1.51c0,.2-.17.37-.37.37h-.02l.41,1.04h-.83l-.41-1.04h-.36v1.04h-.85v-3.29h2.07ZM42.88,55.18s-.02-.05-.04-.05h-.7v.88h.7s.04-.02.04-.04v-.79Z"/>
        <path class="cls-1" d="M49.21,57.72h-.85v-.82h-.75v.82h-.85v-2.91c0-.23.16-.39.39-.39h1.67c.23,0,.39.16.39.39v2.91ZM48.36,56.19v-.99c0-.06-.05-.1-.12-.1h-.53c-.06,0-.1.04-.1.1v.99h.75Z"/>
        <path class="cls-1" d="M53.1,55.91v1.81h-.78v-3.29h.78l.99,1.82v-1.82h.78v3.29h-.81l-.96-1.81Z"/>
        <path class="cls-1" d="M63.43,54.43c.23,0,.39.16.39.39v2.52c0,.23-.16.39-.39.39h-1.69c-.23,0-.39-.16-.39-.39v-2.52c0-.23.16-.39.39-.39h1.69ZM62.97,55.19s-.02-.05-.05-.05h-.67s-.04.02-.04.05v1.77s.02.04.04.04h.67s.05-.02.05-.04v-1.77Z"/>
        <path class="cls-1" d="M70.26,54.43l-.62,3.29h-.75l-.51-1.84-.52,1.84h-.73l-.62-3.29h.83l.29,2.07.44-2.07h.7l.42,2.01.31-2.01h.76Z"/>
        <path class="cls-1" d="M73.85,55.91v1.81h-.78v-3.29h.78l.99,1.82v-1.82h.78v3.29h-.81l-.96-1.81Z"/>
        <path class="cls-1" d="M78.75,54.43h2.15v.71h-1.31v.58h1.13v.7h-1.13v.6h1.31v.71h-2.15v-3.29Z"/>
        <path class="cls-1" d="M85.69,54.43c.36,0,.67.3.67.67v1.95c0,.38-.31.67-.67.67h-1.77v-3.29h1.77ZM85.52,55.38c0-.14-.1-.24-.24-.24h-.51v1.87h.51c.14,0,.24-.1.24-.24v-1.4Z"/>
      </g>
      <rect class="cls-2" x=".02" y="51.33" width="10.48" height="9.49"/>
      <rect class="cls-3" x="96.37" y="51.33" width="10.42" height="9.49"/>
    </g>
  </g>
</svg>