<?xml version="1.0" encoding="UTF-8"?>
<svg id="Layer_2" data-name="Layer 2" xmlns="http://www.w3.org/2000/svg" viewBox="0 0 796.52 453.66">
  <g id="Layer_1-2" data-name="Layer 1">
    <g>
      <rect x="307.99" y="195.11" width="78.3" height="72.28"/>
      <g>
        <path d="M17.83,360.06c-11.99,0-17.68-5.52-17.68-17.68v-25.91c0-12.17,5.69-17.68,17.68-17.68h26.09c11.99,0,17.68,5.52,17.68,17.68v7.79h-18.21v-4.11c0-4.2-1.49-5.6-5.6-5.6h-13.13c-4.2,0-5.6,1.4-5.6,5.6v18.56c0,4.2,1.4,5.6,5.6,5.6h13.13c4.11,0,5.6-1.4,5.6-5.6v-4.73h18.21v8.4c0,12.17-5.69,17.68-17.68,17.68h-26.09Z"/>
        <path d="M88.66,360.06c-11.99,0-17.68-5.52-17.68-17.68v-25.91c0-12.17,5.69-17.68,17.68-17.68h28.54c11.99,0,17.68,5.52,17.68,17.68v25.91c0,12.17-5.69,17.68-17.68,17.68h-28.54ZM110.37,344.03c4.11,0,5.6-1.4,5.6-5.6v-18.03c0-4.2-1.49-5.6-5.6-5.6h-14.88c-4.2,0-5.6,1.4-5.6,5.6v18.03c0,4.2,1.4,5.6,5.6,5.6h14.88Z"/>
        <path d="M189.96,298.77h18.21v61.28h-15.23l-29.59-34.49v34.49h-18.21v-61.28h16.02l28.8,33.53v-33.53Z"/>
        <path d="M218.5,340.36h18.21v2.54c0,2.89.96,3.85,3.85,3.85h17.33c2.89,0,3.85-.96,3.85-3.85v-2.19c0-2.89-.79-3.59-3.85-3.85l-24.69-2.19c-9.81-.96-13.83-4.46-13.83-13.83v-8.23c0-9.54,4.38-13.83,13.83-13.83h32.39c9.45,0,13.83,4.29,13.83,13.83v4.99h-18.21v-1.75c0-2.89-.96-3.85-3.85-3.85h-15.23c-2.89,0-3.85.96-3.85,3.85v1.14c0,2.8.96,3.59,3.85,3.85l24.69,2.19c9.81.79,13.83,4.38,13.83,13.83v9.37c0,9.54-4.38,13.83-13.83,13.83h-34.49c-9.45,0-13.83-4.29-13.83-13.83v-5.87Z"/>
        <path d="M345.18,298.77v16.72h-19.79v44.56h-18.91v-44.56h-19.79v-16.72h58.48Z"/>
        <path d="M415.22,360.06h-20.49l-12.26-19.7h-10.51v19.7h-18.91v-61.28h43.6c11.21,0,15.93,4.73,15.93,15.93v8.32c0,9.54-3.41,14.27-11.12,15.58l13.75,21.45ZM371.98,312.69v14.18h16.98c3.59,0,4.73-1.14,4.73-4.73v-4.73c0-3.59-1.14-4.73-4.73-4.73h-16.98Z"/>
        <path d="M440.7,360.06c-11.99,0-17.68-5.52-17.68-17.68v-43.6h18.91v39.66c0,4.2,1.4,5.6,5.6,5.6h12.26c4.2,0,5.6-1.4,5.6-5.6v-39.66h18.91v43.6c0,12.17-5.69,17.68-17.68,17.68h-25.91Z"/>
        <path d="M511.88,360.06c-11.99,0-17.68-5.52-17.68-17.68v-25.91c0-12.17,5.69-17.68,17.68-17.68h26.09c11.99,0,17.68,5.52,17.68,17.68v7.79h-18.21v-4.11c0-4.2-1.49-5.6-5.6-5.6h-13.13c-4.2,0-5.6,1.4-5.6,5.6v18.56c0,4.2,1.4,5.6,5.6,5.6h13.13c4.11,0,5.6-1.4,5.6-5.6v-4.73h18.21v8.4c0,12.17-5.69,17.68-17.68,17.68h-26.09Z"/>
        <path d="M620.8,298.77v16.72h-19.79v44.56h-18.91v-44.56h-19.79v-16.72h58.48Z"/>
        <path d="M629.03,298.77h19.26v61.28h-19.26v-61.28Z"/>
        <path d="M676.65,360.06c-11.99,0-17.68-5.52-17.68-17.68v-25.91c0-12.17,5.69-17.68,17.68-17.68h28.54c11.99,0,17.68,5.52,17.68,17.68v25.91c0,12.17-5.69,17.68-17.68,17.68h-28.54ZM698.36,344.03c4.11,0,5.6-1.4,5.6-5.6v-18.03c0-4.2-1.49-5.6-5.6-5.6h-14.88c-4.2,0-5.6,1.4-5.6,5.6v18.03c0,4.2,1.4,5.6,5.6,5.6h14.88Z"/>
        <path d="M777.95,298.77h18.21v61.28h-15.23l-29.59-34.49v34.49h-18.21v-61.28h16.02l28.8,33.53v-33.53Z"/>
      </g>
      <path d="M488.94,94.68h211.67c10.05,0,18.2-8.15,18.2-18.2V.25s77.7,0,77.7,0v266.76s-77.7,0-77.7,0v-93.37s-229.87,0-229.87,0v93.37s-78.7,0-78.7,0V112.88c0-10.05,8.15-18.2,18.2-18.2h60.5s0,0,0,0Z"/>
      <path d="M312.96.12c-15.69,0-30.53,7.11-40.37,19.33l-79.4,98.69L113.69,19.33C103.85,7.11,89.01,0,73.32,0H0v267.26h78.3V97.32l65.04,82.11.27.34h.01s11.97,15.12,11.97,15.12h73.99l78.4-97.45v76.15h78.3V.12h-73.32Z"/>
      <rect x="410.24" y="0" width="78.3" height="72.28"/>
      <g>
        <path d="M359.83,410.99h-3.93c-.44,0-.76.33-.76.73v7.39h5.57v-7.39c0-.44-.36-.73-.87-.73Z"/>
        <path d="M101.87,382.85v70.81h593.38v-70.81H101.87ZM166.21,430.55h-6.12l-7.14-24.58h6.77l3.42,15.62,4.11-15.62h6.26l-7.32,24.58ZM210.57,411.25h-9.76v4.3h8.45v5.24h-8.45v4.44h9.76v5.32h-16.06v-24.58h16.06v5.28ZM248.25,411.28h-5.57v19.26h-6.34v-19.26h-5.57v-5.32h17.48v5.32ZM285.4,411.25h-9.76v4.3h8.45v5.24h-8.45v4.44h9.76v5.32h-16.06v-24.58h16.06v5.28ZM319.99,430.55l-3.06-7.79h-2.69v7.79h-6.34v-24.58h15.44c1.49,0,2.77,1.2,2.77,2.77v11.25c0,1.49-1.27,2.77-2.77,2.77h-.18l3.02,7.79h-6.19ZM367.04,430.55h-6.34v-6.12h-5.57v6.12h-6.34v-21.7c0-1.71,1.16-2.88,2.88-2.88h12.49c1.71,0,2.88,1.17,2.88,2.88v21.7ZM409.21,430.55h-6.01l-7.17-13.51v13.51h-5.83v-24.58h5.83l7.35,13.54v-13.54h5.83v24.58ZM475.99,427.67c0,1.71-1.16,2.88-2.88,2.88h-12.63c-1.71,0-2.88-1.17-2.88-2.88v-18.82c0-1.71,1.16-2.88,2.88-2.88h12.63c1.71,0,2.88,1.17,2.88,2.88v18.82ZM519.4,430.55h-5.57l-3.79-13.69-3.9,13.69h-5.46l-4.66-24.58h6.19l2.15,15.44,3.31-15.44h5.21l3.13,15,2.33-15h5.68l-4.62,24.58ZM564.01,430.55h-6.01l-7.17-13.51v13.51h-5.83v-24.58h5.83l7.35,13.54v-13.54h5.83v24.58ZM603.44,411.25h-9.76v4.3h8.45v5.24h-8.45v4.44h9.76v5.32h-16.06v-24.58h16.06v5.28ZM644.16,425.52c0,2.8-2.29,5.02-4.99,5.02h-13.22v-24.58h13.22c2.69,0,4.99,2.22,4.99,4.99v14.56Z"/>
        <path d="M469.26,411.28h-4.99c-.15,0-.33.18-.33.4v13.22c0,.18.18.33.33.33h4.99c.22,0,.4-.15.4-.33v-13.22c0-.22-.18-.4-.4-.4Z"/>
        <path d="M319.48,411.25h-5.24v6.55h5.24c.15,0,.33-.18.33-.33v-5.86c0-.18-.18-.36-.33-.36Z"/>
        <path d="M636.07,411.25h-3.79v13.98h3.79c1.06,0,1.78-.73,1.78-1.78v-10.41c0-1.06-.73-1.78-1.78-1.78Z"/>
      </g>
      <rect x=".14" y="382.85" width="78.16" height="70.81"/>
      <rect x="718.82" y="382.85" width="77.7" height="70.81"/>
    </g>
  </g>
</svg>